<svg width="23" height="23" viewBox="0 0 23 23" fill="none" xmlns="http://www.w3.org/2000/svg">
<path d="M11.3297 14.8129C13.375 14.8129 15.033 13.1549 15.033 11.1096C15.033 9.06429 13.375 7.40625 11.3297 7.40625C9.28438 7.40625 7.62634 9.06429 7.62634 11.1096C7.62634 13.1549 9.28438 14.8129 11.3297 14.8129Z" stroke="white" stroke-linecap="round" stroke-linejoin="round"/>
<path d="M15.0331 7.40599V12.0352C15.0331 12.7718 15.3257 13.4783 15.8466 13.9991C16.3675 14.52 17.0739 14.8127 17.8106 14.8127C18.5472 14.8127 19.2537 14.52 19.7746 13.9991C20.2955 13.4783 20.5881 12.7718 20.5881 12.0352V11.1093C20.588 9.01974 19.881 6.99166 18.5821 5.35483C17.2832 3.71801 15.4687 2.56872 13.4338 2.09383C11.3989 1.61895 9.26323 1.8464 7.37399 2.7392C5.48475 3.63201 3.95308 5.13765 3.02804 7.01133C2.10301 8.885 1.839 11.0165 2.27896 13.0592C2.71892 15.102 3.83696 16.9358 5.45129 18.2626C7.06563 19.5893 9.0813 20.3309 11.1706 20.3669C13.2598 20.4028 15.2998 19.7309 16.9588 18.4604" stroke="white" stroke-linecap="round" stroke-linejoin="round"/>
</svg>
