<svg width="23" height="16" viewBox="0 0 23 16" fill="none" xmlns="http://www.w3.org/2000/svg">
<path d="M0.220215 8.11078C0.220215 8.11078 4.38646 0.472656 11.3302 0.472656C18.274 0.472656 22.4402 8.11078 22.4402 8.11078C22.4402 8.11078 18.274 15.7489 11.3302 15.7489C4.38646 15.7489 0.220215 8.11078 0.220215 8.11078ZM11.3302 12.9714C12.6193 12.9714 13.8557 12.4593 14.7672 11.5478C15.6787 10.6362 16.1908 9.3999 16.1908 8.11078C16.1908 6.82166 15.6787 5.58534 14.7672 4.6738C13.8557 3.76226 12.6193 3.25016 11.3302 3.25016C10.0411 3.25016 8.80478 3.76226 7.89323 4.6738C6.98169 5.58534 6.46959 6.82166 6.46959 8.11078C6.46959 9.3999 6.98169 10.6362 7.89323 11.5478C8.80478 12.4593 10.0411 12.9714 11.3302 12.9714Z" fill="white"/>
</svg>
