<svg width="23" height="23" viewBox="0 0 23 23" fill="none" xmlns="http://www.w3.org/2000/svg">
<path d="M19.4425 9.25828C19.4425 15.7391 11.11 21.2941 11.11 21.2941C11.11 21.2941 2.77747 15.7391 2.77747 9.25828C2.77747 7.04836 3.65535 4.92896 5.218 3.36631C6.78065 1.80367 8.90005 0.925781 11.11 0.925781C13.3199 0.925781 15.4393 1.80367 17.0019 3.36631C18.5646 4.92896 19.4425 7.04836 19.4425 9.25828Z" stroke="white" stroke-linecap="round" stroke-linejoin="round"/>
<path d="M11.11 12.0355C12.644 12.0355 13.8875 10.7919 13.8875 9.25797C13.8875 7.724 12.644 6.48047 11.11 6.48047C9.57605 6.48047 8.33252 7.724 8.33252 9.25797C8.33252 10.7919 9.57605 12.0355 11.11 12.0355Z" stroke="white" stroke-linecap="round" stroke-linejoin="round"/>
</svg>
