<svg width="23" height="23" viewBox="0 0 23 23" fill="none" xmlns="http://www.w3.org/2000/svg">
<path d="M20.3683 15.6651V18.4426C20.3693 18.7004 20.3165 18.9557 20.2132 19.1919C20.1099 19.4282 19.9584 19.6402 19.7684 19.8145C19.5784 19.9889 19.3541 20.1216 19.1098 20.2042C18.8656 20.2868 18.6068 20.3175 18.35 20.2943C15.501 19.9847 12.7644 19.0112 10.36 17.4519C8.12305 16.0305 6.22649 14.1339 4.80502 11.8969C3.24034 9.48163 2.26661 6.73171 1.96271 3.86997C1.93958 3.61395 1.97001 3.35591 2.05206 3.11229C2.13411 2.86867 2.26599 2.6448 2.4393 2.45494C2.61261 2.26509 2.82356 2.11339 3.05871 2.00953C3.29386 1.90566 3.54806 1.85189 3.80512 1.85165H6.58262C7.03194 1.84723 7.46753 2.00634 7.80821 2.29932C8.14888 2.59231 8.3714 2.99917 8.43429 3.44409C8.55152 4.33295 8.76893 5.20569 9.08237 6.04568C9.20694 6.37705 9.2339 6.7372 9.16006 7.08343C9.08622 7.42966 8.91467 7.74746 8.66575 7.99919L7.48994 9.17499C8.80791 11.4929 10.7271 13.412 13.0449 14.73L14.2207 13.5542C14.4725 13.3053 14.7903 13.1337 15.1365 13.0599C15.4827 12.986 15.8429 13.013 16.1743 13.1376C17.0142 13.451 17.887 13.6684 18.7758 13.7856C19.2256 13.8491 19.6363 14.0756 19.9299 14.4221C20.2235 14.7687 20.3795 15.211 20.3683 15.6651Z" stroke="white" stroke-linecap="round" stroke-linejoin="round"/>
</svg>
