<svg width="24" height="24" viewBox="0 0 24 24" fill="none" xmlns="http://www.w3.org/2000/svg">
<path fill-rule="evenodd" clip-rule="evenodd" d="M14.53 15.5895C12.8986 16.9482 10.8061 17.6256 8.688 17.4808C6.56985 17.3361 4.58905 16.3803 3.15762 14.8123C1.72619 13.2444 0.95434 11.1849 1.00262 9.06238C1.05091 6.93984 1.91561 4.91762 3.41686 3.41637C4.91811 1.91512 6.94033 1.05042 9.06287 1.00214C11.1854 0.953852 13.2449 1.7257 14.8128 3.15713C16.3808 4.58856 17.3365 6.56937 17.4813 8.68751C17.626 10.8057 16.9486 12.8981 15.59 14.5295L21.28 20.2195C21.3537 20.2882 21.4128 20.371 21.4538 20.463C21.4948 20.555 21.5168 20.6543 21.5186 20.755C21.5204 20.8557 21.5018 20.9557 21.4641 21.0491C21.4264 21.1425 21.3703 21.2273 21.299 21.2985C21.2278 21.3698 21.143 21.4259 21.0496 21.4636C20.9562 21.5014 20.8562 21.5199 20.7555 21.5181C20.6548 21.5163 20.5555 21.4943 20.4635 21.4533C20.3715 21.4123 20.2887 21.3532 20.22 21.2795L14.53 15.5895ZM2.5 9.24951C2.50022 8.15282 2.76767 7.0727 3.27918 6.10261C3.79069 5.13251 4.53087 4.30166 5.43568 3.68194C6.34048 3.06222 7.38266 2.67229 8.47204 2.5459C9.56143 2.4195 10.6652 2.56044 11.6879 2.95653C12.7105 3.35262 13.6213 3.99192 14.3413 4.81912C15.0614 5.64632 15.569 6.63651 15.8204 7.70401C16.0717 8.77151 16.0591 9.88418 15.7838 10.9457C15.5084 12.0073 14.9785 12.9858 14.24 13.7965C14.1386 13.8337 14.0464 13.8925 13.9699 13.9688C13.8934 14.0451 13.8344 14.1371 13.797 14.2385C12.83 15.1199 11.6276 15.7013 10.3362 15.9118C9.04481 16.1224 7.72005 15.9531 6.52312 15.4245C5.3262 14.8959 4.3087 14.0308 3.59444 12.9345C2.88018 11.8382 2.49994 10.558 2.5 9.24951Z" fill="#135334"/>
<path fill-rule="evenodd" clip-rule="evenodd" d="M14.53 15.5895C12.8986 16.9482 10.8061 17.6256 8.688 17.4808C6.56985 17.3361 4.58905 16.3803 3.15762 14.8123C1.72619 13.2444 0.95434 11.1849 1.00262 9.06238C1.05091 6.93984 1.91561 4.91762 3.41686 3.41637C4.91811 1.91512 6.94033 1.05042 9.06287 1.00214C11.1854 0.953852 13.2449 1.7257 14.8128 3.15713C16.3808 4.58856 17.3365 6.56937 17.4813 8.68751C17.626 10.8057 16.9486 12.8981 15.59 14.5295L21.28 20.2195C21.3537 20.2882 21.4128 20.371 21.4538 20.463C21.4948 20.555 21.5168 20.6543 21.5186 20.755C21.5204 20.8557 21.5018 20.9557 21.4641 21.0491C21.4264 21.1425 21.3703 21.2273 21.299 21.2985C21.2278 21.3698 21.143 21.4259 21.0496 21.4636C20.9562 21.5014 20.8562 21.5199 20.7555 21.5181C20.6548 21.5163 20.5555 21.4943 20.4635 21.4533C20.3715 21.4123 20.2887 21.3532 20.22 21.2795L14.53 15.5895ZM2.5 9.24951C2.50022 8.15282 2.76767 7.0727 3.27918 6.10261C3.79069 5.13251 4.53087 4.30166 5.43568 3.68194C6.34048 3.06222 7.38266 2.67229 8.47204 2.5459C9.56143 2.4195 10.6652 2.56044 11.6879 2.95653C12.7105 3.35262 13.6213 3.99192 14.3413 4.81912C15.0614 5.64632 15.569 6.63651 15.8204 7.70401C16.0717 8.77151 16.0591 9.88418 15.7838 10.9457C15.5084 12.0073 14.9785 12.9858 14.24 13.7965C14.1386 13.8337 14.0464 13.8925 13.9699 13.9688C13.8934 14.0451 13.8344 14.1371 13.797 14.2385C12.83 15.1199 11.6276 15.7013 10.3362 15.9118C9.04481 16.1224 7.72005 15.9531 6.52312 15.4245C5.3262 14.8959 4.3087 14.0308 3.59444 12.9345C2.88018 11.8382 2.49994 10.558 2.5 9.24951Z" fill="black" fill-opacity="0.2"/>
</svg>
